<svg width="215" height="60" viewBox="0 0 215 60" fill="none" xmlns="http://www.w3.org/2000/svg">
<g clip-path="url(#clip0_10617_77510)">
<g clip-path="url(#clip1_10617_77510)">
<rect width="60" height="60" rx="13.9535" fill="#5953F6"/>
<g clip-path="url(#clip2_10617_77510)">
<circle cx="30.9375" cy="29.0625" r="19.6875" fill="#36CFC9"/>
<path d="M42.9012 9.44022C43.0317 10.1116 43.5962 10.7681 44.3336 10.6362C44.6189 10.5852 44.8313 10.2615 45.1742 10.3395C52.7398 13.6456 59.3251 18.7922 65.7192 23.8039C66.6023 24.4963 67.4702 25.4645 68.3776 26.1179C70.2591 27.4668 72.9964 28.7527 75.3423 28.7467C74.5563 29.4601 73.3363 30.2574 72.3076 30.6141C71.2788 30.9708 70.1681 31.0697 69.0483 30.9917C65.1487 30.719 62.9607 27.9853 60.102 25.7552C48.8098 16.9518 37.2445 8.72084 21.9709 12.9592C15.6344 14.7187 8.96411 18.984 4.00843 23.2104C3.65337 23.5132 2.91897 24.0467 3.13444 24.5083C3.3499 24.9699 4.34529 26.4566 4.68214 26.8373C7.27378 29.7748 10.263 31.9449 13.7832 33.6804C14.4418 34.0042 15.3643 34.2889 15.9045 34.5767C15.9318 34.5917 16.0107 34.6816 16.0562 34.7265C16.2656 34.9334 16.3961 35.344 16.6541 35.5598C17.5402 36.3002 17.9559 35.6018 18.7875 35.6258C19.9498 35.6557 21.7949 36.2432 23.1058 36.3751C26.6868 36.7348 30.6198 36.3272 34.1036 35.404C34.8957 35.1941 37.2446 34.22 37.8029 34.2769C38.0943 34.3069 38.7892 34.7805 39.0897 34.9633C40.3005 35.7007 41.4962 36.6299 42.7374 37.3463C41.7632 37.8439 40.7254 38.2995 39.7027 38.6891C32.8169 41.3329 25.2575 42.1482 18.0257 40.4127C17.4825 40.2808 16.8999 40.1189 16.3567 39.963C15.8134 39.8072 15.246 39.5554 14.6876 39.3636C14.3082 39.2227 14.5358 38.9829 14.3264 38.7611C14.2202 38.6502 13.152 37.7659 13.0761 37.736C12.2477 37.4242 13.0913 38.3025 13.2461 38.4643C13.3159 38.5363 13.7772 38.851 13.4737 38.9139C7.26164 36.4411 0.354647 31.1686 -2.42514 25.0538C-2.60723 24.6552 -3.11706 23.5881 -3.18382 23.2434C-3.22631 23.0276 -3.17168 22.9826 -3.06243 22.8237C-2.68006 22.2572 -1.49046 21.5378 -0.929035 21.0373C11.7773 9.76994 25.743 3.08268 42.9012 9.44022ZM16.824 36.9686C17.1396 36.6389 15.4705 34.9933 14.8423 35.8386C14.7301 35.9885 14.7483 36.2462 14.6633 36.3302C14.3871 36.6119 13.4373 36.4351 13.8318 37.3823C14.1079 37.4332 14.9091 38.7221 15.1549 38.4613C15.4918 38.1076 14.2657 37.5291 14.3962 37.0435C14.6238 36.2043 15.7436 37.712 15.8377 37.712C15.8954 37.712 16.0987 37.4902 16.0653 37.3433C16.0259 37.1724 14.8272 36.3871 15.1579 36.0694C15.598 35.6497 16.5964 37.2054 16.824 36.9656V36.9686ZM10.9974 37.1754C11.4344 37.736 11.9685 38.2335 12.5815 37.4962C13.0792 36.8997 13.2188 36.2402 12.3873 35.8865C11.3919 35.4639 11.4313 36.1863 10.7546 36.6179C10.618 37.1185 10.9063 37.0585 10.9974 37.1754Z" fill="white"/>
<path d="M7.27085 42.3551C7.5379 42.7028 7.14643 43.0086 7.34672 43.3952C7.48024 43.656 8.16305 44.3214 8.43011 44.4264C9.3739 44.798 8.22375 43.704 8.17216 43.632C7.92028 43.2664 7.85048 42.8167 8.4817 42.9516C21.0697 49.468 33.7031 50.1544 46.3852 43.4012C46.7797 43.7699 46.6887 44.3574 47.0134 44.807C47.6294 45.6553 48.6673 46.3297 49.6596 46.6804C49.9328 46.7763 50.1877 46.5186 49.8721 46.9922C35.442 55.31 20.6357 54.6956 6.05393 47.142L6.20567 46.5455C6.06607 46.4107 5.37719 46.9802 5.14352 46.6954C5.07676 46.6145 5.21028 45.7153 5.14352 45.6463C4.96144 45.4575 4.04496 45.8232 3.7779 45.9461C-1.91824 42.6549 -6.46423 38.3266 -12.2939 35.4011L-13.96 34.8765C-9.92077 33.7765 -5.87247 33.6806 -2.23689 35.9496C0.985971 37.9609 3.82038 40.4488 7.26478 42.3581L7.27085 42.3551ZM8.02953 44.9029C8.01739 44.888 7.78371 44.87 7.65322 44.7561C7.14339 44.3005 6.79743 43.629 5.97503 44.1446C4.99785 44.7561 6.00234 46.3867 7.12215 45.8711C7.29513 45.7902 7.4681 45.5594 7.42562 45.3496C7.17374 45.2926 6.9431 45.4815 6.7246 45.4964C5.88399 45.5474 5.75956 44.2345 6.70943 44.4803C7.14946 44.5942 7.46204 45.2536 7.95366 45.1997C8.08415 45.2177 8.04773 44.9269 8.02953 44.9029Z" fill="white"/>
<path d="M46.0853 25.4496C51.1988 28.5999 56.3001 31.7772 61.4105 34.9395C61.9264 35.2602 62.4909 35.5689 63.0645 35.7757C63.1494 35.8926 62.67 36.5041 62.5607 36.621C60.8279 38.4794 59.1345 40.3918 57.1529 42.0553C56.7098 42.1423 56.8797 41.8455 56.8099 41.5788C56.552 40.6106 56.1908 40.3738 55.7053 39.5195L54.1212 38.0148C54.3518 37.817 55.3502 37.1306 55.1135 36.8128C52.6281 35.2422 50.1032 33.7255 47.6026 32.1788C47.3841 32.0439 47.1838 32.0499 47.1474 32.0289C42.4588 29.1274 37.8096 25.9771 33.036 23.1386C32.5232 22.8328 32.0194 22.4881 31.4428 22.2993L19.4496 30.3504C18.9368 30.4373 15.6047 27.9405 15.0068 27.4639L31.1758 16.3464C31.5794 16.3044 34.2408 18.1838 34.8174 18.5345C38.5804 20.8276 42.3344 23.1356 46.0853 25.4466V25.4496Z" fill="white"/>
<path d="M51.8468 39.8135C51.7588 40.3051 52.1018 40.0503 52.3718 40.1103C53.8346 40.431 54.6115 40.9855 54.9635 42.4962C55.0454 42.8529 54.9301 43.3026 55.182 43.5513C54.4779 44.0789 53.7769 44.8073 52.909 45.0471C53.2246 44.7473 53.7405 44.3367 53.8133 43.92C53.868 43.5993 53.8588 42.9159 53.8133 42.5862C53.6464 41.4621 51.5009 40.7787 50.6997 41.7439C50.551 41.9237 50.5541 42.0946 50.4691 42.2355C50.3416 42.4453 50.0897 42.2804 50.1686 42.8829C50.2051 43.1557 50.3659 43.0628 50.4691 43.2186C50.6512 43.4974 50.6421 43.902 51.1883 43.965C51.9561 44.0519 51.595 43.3445 51.7224 42.9069C51.8954 42.3254 52.6541 42.4962 52.7573 43.0268C53.1396 44.9661 49.6436 45.2659 49.1824 43.1107C49.0944 42.6971 49.2249 42.2085 48.9639 41.9057C49.935 41.2823 50.9182 40.506 51.8438 39.8105L51.8468 39.8135Z" fill="white"/>
<path d="M48.968 41.9079C49.229 42.2136 49.0985 42.6992 49.1865 43.1129C49.6478 45.268 53.1408 44.9683 52.7614 43.0289C52.6582 42.4984 51.8996 42.3275 51.7266 42.909C51.5961 43.3497 51.9572 44.057 51.1925 43.9671C50.6462 43.9042 50.6553 43.4995 50.4732 43.2208C50.3701 43.0619 50.2062 43.1578 50.1728 42.8851C50.0939 42.2826 50.3458 42.4474 50.4732 42.2376C50.5582 42.0967 50.5521 41.9259 50.7039 41.746C51.505 40.7809 53.6506 41.4643 53.8175 42.5883C53.8661 42.915 53.8752 43.6014 53.8175 43.9222C53.7447 44.3418 53.2288 44.7495 52.9131 45.0492C52.7341 45.22 52.5763 45.253 52.4579 45.3489C50.3003 46.1942 48.0424 44.8664 48.0607 42.5074C48.3429 42.3365 48.6706 42.0997 48.9711 41.9079H48.968Z" fill="white"/>
<path d="M48.0577 42.5054C48.0394 44.8673 50.2942 46.1922 52.4549 45.3469C51.4414 46.1772 50.9588 46.3691 49.8785 46.9925C50.1911 46.5219 49.9392 46.7797 49.666 46.6808C48.6737 46.3301 47.6389 45.6557 47.0198 44.8074C46.692 44.3578 46.7861 43.7733 46.3916 43.4016C46.8923 43.1348 47.6055 42.7781 48.0607 42.5054H48.0577Z" fill="white"/>
<path d="M54.1215 38.0181L55.7056 39.5228C56.1911 40.377 56.5523 40.6138 56.8102 41.582C56.88 41.8488 56.7131 42.1455 57.1531 42.0586C56.6767 42.4603 56.1699 42.6581 55.7875 42.9548C55.9241 41.1324 54.5585 39.5198 52.7559 39.214C53.1504 38.9023 53.6997 38.3808 54.1215 38.0181Z" fill="white"/>
<path d="M52.7586 39.2139C54.5612 39.5196 55.9268 41.1322 55.7902 42.9547C55.6294 43.0805 55.4625 43.3413 55.1833 43.5541C54.9314 43.3054 55.0467 42.8557 54.9648 42.499C54.6128 40.9883 53.8359 40.4338 52.3732 40.1131C52.1 40.0531 51.7601 40.3049 51.8482 39.8163C52.1243 39.6095 52.5734 39.3637 52.7586 39.2169V39.2139Z" fill="white"/>
<path d="M45.1773 10.3367C44.8344 10.2618 44.6219 10.5855 44.3367 10.6335C43.5992 10.7654 43.0348 10.1089 42.9043 9.4375C43.7419 9.74923 44.3549 9.97704 45.1773 10.3337V10.3367Z" fill="white"/>
<path d="M8.48429 42.9554C7.85307 42.8235 7.91983 43.2701 8.17475 43.6358C8.2233 43.7077 9.37649 44.8018 8.4327 44.4301C8.16564 44.3252 7.4798 43.6598 7.34931 43.399C7.15205 43.0093 7.54049 42.7036 7.27344 42.3589C7.65278 42.5687 8.08977 42.7515 8.48732 42.9584L8.48429 42.9554Z" fill="white"/>
<path d="M13.4896 38.9138C13.7931 38.8509 13.3318 38.5361 13.262 38.4642C13.1042 38.3023 12.2636 37.4241 13.0921 37.7358C13.1679 37.7658 14.2392 38.65 14.3424 38.7609C14.5518 38.9828 14.3242 39.2226 14.7035 39.3634C14.2483 39.2076 13.9145 39.0847 13.4896 38.9138Z" fill="white"/>
<path d="M3.78418 45.9461C4.05123 45.8233 4.96772 45.4576 5.1498 45.6464C5.21353 45.7123 5.08303 46.6146 5.1498 46.6955C4.68549 46.4437 4.24242 46.2099 3.78418 45.9461Z" fill="white"/>
<path d="M5.14941 46.6953C5.38005 46.9801 6.07196 46.4105 6.21156 46.5454L6.05983 47.1419C5.76242 46.9891 5.48323 46.8752 5.14941 46.6923V46.6953Z" fill="white"/>
<path d="M10.9978 37.175C10.9067 37.0581 10.6154 37.1181 10.755 36.6175C11.4317 36.1859 11.3953 35.4605 12.3877 35.8861C13.2192 36.2398 13.0826 36.8992 12.5819 37.4957C11.9659 38.2301 11.4348 37.7325 10.9978 37.175Z" fill="white"/>
<path d="M16.8242 36.9692C16.5966 37.209 15.5982 35.6534 15.1581 36.073C14.8273 36.3877 16.0291 37.1761 16.0655 37.3469C16.0989 37.4938 15.8956 37.7186 15.8379 37.7156C15.7469 37.7156 14.624 36.2079 14.3964 37.0472C14.2659 37.5328 15.4889 38.1113 15.1551 38.465C14.9093 38.7227 14.1051 37.4368 13.832 37.3859C13.4344 36.4387 14.3873 36.6125 14.6635 36.3338C14.7454 36.2499 14.7302 35.9891 14.8425 35.8422C15.4707 34.9939 17.1398 36.6395 16.8242 36.9722V36.9692Z" fill="white"/>
<path d="M18.7937 35.4725V35.6224C17.9622 35.6014 17.5465 36.2968 16.6603 35.5564C16.4024 35.3406 16.2719 34.93 16.0625 34.7231C16.9668 34.936 17.8499 35.4695 18.7907 35.4725H18.7937Z" fill="white"/>
<path d="M8.02941 44.903C8.04762 44.927 8.08403 45.2177 7.95354 45.1998C7.45888 45.2537 7.14934 44.5943 6.70931 44.4804C5.75944 44.2346 5.88387 45.5475 6.72448 45.4965C6.94298 45.4845 7.17058 45.2957 7.4255 45.3496C7.46799 45.5594 7.29804 45.7902 7.12203 45.8712C6.00222 46.3867 4.99773 44.7561 5.97491 44.1447C6.79732 43.6291 7.14327 44.3035 7.6531 44.7561C7.78056 44.87 8.01727 44.888 8.02941 44.903Z" fill="white"/>
</g>
</g>
<path d="M88.6711 8.69091C87.7558 7.79697 86.6793 7.09273 85.4416 6.57818C84.2038 6.06363 82.8759 5.80518 81.4556 5.80518C80.0353 5.80518 78.7358 6.06363 77.4862 6.57818C76.2366 7.09273 75.1553 7.79697 74.2401 8.69091C73.3248 9.58485 72.5968 10.6258 72.0586 11.8185C71.5203 13.0088 71.25 14.2822 71.25 15.6314C71.25 16.9806 71.5179 18.2539 72.0586 19.4443C72.5968 20.6346 73.3248 21.6779 74.2401 22.5719C75.1553 23.4658 76.239 24.17 77.4862 24.6846C78.7335 25.1991 80.0566 25.4576 81.4556 25.4576C82.5772 25.4576 83.6086 25.1991 84.5476 24.6846C85.4866 24.17 86.2549 23.4776 86.85 22.6051C86.85 24.1605 88.1115 25.422 89.667 25.422H91.6588V15.629C91.6588 14.2774 91.3885 13.0065 90.8502 11.8161C90.312 10.6258 89.584 9.58248 88.6688 8.68854L88.6711 8.69091ZM86.3023 17.6422C86.0272 18.2729 85.6597 18.8159 85.2021 19.2735C84.7444 19.7312 84.1991 20.0987 83.5707 20.3738C82.94 20.6488 82.2713 20.7863 81.5599 20.7863C80.8486 20.7863 80.1799 20.6488 79.5492 20.3738C78.9184 20.0987 78.3754 19.7335 77.9178 19.2735C77.4601 18.8159 77.0926 18.2705 76.8176 17.6422C76.5425 17.0114 76.405 16.3427 76.405 15.6314C76.405 14.92 76.5425 14.2514 76.8176 13.6206C77.0926 12.9899 77.4578 12.4469 77.9178 11.9892C78.3754 11.5316 78.9208 11.1641 79.5492 10.889C80.1799 10.6139 80.8486 10.4764 81.5599 10.4764C82.2713 10.4764 82.94 10.6139 83.5707 10.889C84.2014 11.1641 84.7444 11.5316 85.2021 11.9892C85.6597 12.4469 86.0272 12.9922 86.3023 13.6206C86.5774 14.2514 86.7149 14.92 86.7149 15.6314C86.7149 16.3427 86.5774 17.0114 86.3023 17.6422Z" fill="#7C81FD"/>
<path d="M129.613 11.8185C129.096 10.6282 128.392 9.58485 127.503 8.69091C126.614 7.79697 125.573 7.09273 124.387 6.57818C123.199 6.06363 121.924 5.80518 120.563 5.80518C119.201 5.80518 117.923 6.06363 116.738 6.57818C115.55 7.09273 114.511 7.79697 113.622 8.69091C112.733 9.58485 112.029 10.6258 111.512 11.8185C110.995 13.0088 110.736 14.2822 110.736 15.6314C110.736 16.9806 110.995 18.2539 111.512 19.4443C112.029 20.6346 112.733 21.6779 113.622 22.5719C114.511 23.4658 115.552 24.17 116.738 24.6846C117.926 25.1991 119.199 25.4576 120.563 25.4576C121.926 25.4576 123.202 25.1991 124.387 24.6846C125.575 24.17 126.614 23.4658 127.503 22.5719C128.392 21.6779 129.096 20.637 129.613 19.4443C130.13 18.2539 130.389 16.983 130.389 15.6314C130.389 14.2798 130.13 13.0088 129.613 11.8185ZM125.063 17.6422C124.809 18.2729 124.463 18.8159 124.024 19.2735C123.583 19.7312 123.069 20.0987 122.474 20.3738C121.881 20.6488 121.243 20.7863 120.56 20.7863C119.877 20.7863 119.242 20.6488 118.647 20.3738C118.054 20.0987 117.537 19.7335 117.096 19.2735C116.655 18.8159 116.309 18.2705 116.057 17.6422C115.804 17.0114 115.678 16.3427 115.678 15.6314C115.678 14.92 115.804 14.2514 116.057 13.6206C116.309 12.9899 116.657 12.4469 117.096 11.9892C117.535 11.5316 118.051 11.1641 118.647 10.889C119.239 10.6139 119.877 10.4764 120.56 10.4764C121.243 10.4764 121.879 10.6139 122.474 10.889C123.067 11.1641 123.583 11.5316 124.024 11.9892C124.463 12.4469 124.809 12.9922 125.063 13.6206C125.314 14.2514 125.442 14.92 125.442 15.6314C125.442 16.3427 125.317 17.0114 125.063 17.6422Z" fill="#7C81FD"/>
<path d="M93.2686 22.4013V0.500977H98.4686V13.9148L104.501 6.73957H110.739L103.842 14.7115L112.368 25.4577H106.059L98.4686 15.5794V25.4577H96.3274C94.6391 25.4577 93.2686 24.0896 93.2686 22.3989V22.4013Z" fill="#7C81FD"/>
<path d="M140.529 36.6615C139.283 35.4439 137.816 34.4847 136.131 33.7838C134.445 33.083 132.636 32.731 130.701 32.731C128.767 32.731 126.997 33.083 125.295 33.7838C123.593 34.4847 122.12 35.4439 120.873 36.6615C119.627 37.8791 118.635 39.2969 117.902 40.9215C117.169 42.5428 116.801 44.2771 116.801 46.1148C116.801 47.9525 117.166 49.6869 117.902 51.3082C118.635 52.9295 119.627 54.3505 120.873 55.5681C122.12 56.7857 123.596 57.745 125.295 58.4458C126.994 59.1466 128.796 59.4987 130.701 59.4987C132.229 59.4987 133.634 59.1466 134.913 58.4458C136.192 57.745 137.238 56.8019 138.049 55.6134C138.049 57.732 139.767 59.4502 141.886 59.4502H144.599V46.1116C144.599 44.2707 144.231 42.5395 143.497 40.9182C142.764 39.2969 141.773 37.8759 140.526 36.6583L140.529 36.6615ZM137.303 48.8536C136.928 49.7127 136.428 50.4523 135.804 51.0756C135.181 51.699 134.438 52.1996 133.582 52.5742C132.723 52.9489 131.812 53.1362 130.843 53.1362C129.875 53.1362 128.964 52.9489 128.105 52.5742C127.246 52.1996 126.506 51.7022 125.883 51.0756C125.259 50.4523 124.759 49.7095 124.384 48.8536C124.009 47.9945 123.822 47.0837 123.822 46.1148C123.822 45.1459 124.009 44.2351 124.384 43.376C124.759 42.5169 125.256 41.7773 125.883 41.154C126.506 40.5307 127.249 40.0301 128.105 39.6554C128.964 39.2808 129.875 39.0935 130.843 39.0935C131.812 39.0935 132.723 39.2808 133.582 39.6554C134.441 40.0301 135.181 40.5307 135.804 41.154C136.428 41.7773 136.928 42.5202 137.303 43.376C137.678 44.2351 137.865 45.1459 137.865 46.1148C137.865 47.0837 137.678 47.9945 137.303 48.8536Z" fill="#5953F6"/>
<path d="M113.268 46.4539C113.268 48.2303 112.981 49.9032 112.409 51.4697C111.838 53.0361 111.024 54.4054 109.971 55.5811C108.918 56.7567 107.636 57.6804 106.131 58.3586C104.626 59.0368 102.94 59.3759 101.07 59.3759C99.1998 59.3759 97.6431 59.0078 96.1219 58.2682C94.6007 57.5286 93.3153 56.5274 92.2592 55.2645C91.2063 56.5306 89.9176 57.5318 88.3965 58.2682C86.8753 59.0045 85.2281 59.3759 83.4486 59.3759C81.5818 59.3759 79.8959 59.0368 78.3876 58.3586C76.8826 57.6804 75.6036 56.7534 74.5475 55.5811C73.4946 54.4054 72.6808 53.0361 72.1091 51.4697C71.5374 49.9032 71.25 48.2303 71.25 46.4539V34.2554H78.0259V46.4539C78.0259 47.3873 78.1325 48.269 78.3424 49.0958C78.5523 49.9226 78.885 50.6396 79.3372 51.2403C79.7893 51.8411 80.3545 52.3255 81.0295 52.6872C81.7078 53.049 82.5152 53.2298 83.4453 53.2298C84.3755 53.2298 85.1861 53.049 85.8611 52.6872C86.5394 52.3255 87.1046 51.8443 87.5567 51.2403C88.0089 50.6364 88.3383 49.9226 88.5515 49.0958C88.7614 48.2658 88.868 47.3873 88.868 46.4539V34.2554H95.6439V46.4539C95.6439 47.3873 95.7505 48.269 95.9604 49.0958C96.1703 49.9226 96.503 50.6396 96.9551 51.2403C97.4073 51.8411 97.9725 52.3255 98.6507 52.6872C99.329 53.049 100.133 53.2298 101.067 53.2298C102 53.2298 102.804 53.049 103.482 52.6872C104.161 52.3255 104.726 51.8443 105.178 51.2403C105.63 50.6364 105.963 49.9226 106.173 49.0958C106.383 48.2658 106.489 47.3873 106.489 46.4539V34.2554H113.265V46.4539H113.268Z" fill="#5953F6"/>
<path d="M156.739 31.0325V25.458H149.657V31.0325C147.218 31.0583 145.248 33.0413 145.248 35.4862V38.4575H149.657V55.2842C149.657 57.5838 151.52 59.4506 153.823 59.4506H156.739V38.4608H158.293C160.366 38.4608 162.046 36.7813 162.046 34.7079V31.0325H156.743H156.739Z" fill="#5953F6"/>
<path d="M179.751 50.4103C179.209 50.4103 178.689 50.6332 178.314 51.0239L178.308 51.0304C177.707 51.6537 177.006 52.1543 176.195 52.529C175.388 52.9036 174.519 53.091 173.589 53.091C172.659 53.091 171.793 52.9036 170.983 52.529C170.175 52.1543 169.471 51.657 168.87 51.0304C168.27 50.4071 167.798 49.6642 167.456 48.8084C167.11 47.9493 166.939 47.0385 166.939 46.0696C166.939 45.1007 167.11 44.1899 167.456 43.3308C167.798 42.4717 168.273 41.7321 168.87 41.1088C169.468 40.4855 170.172 39.9848 170.983 39.6102C171.79 39.2356 172.659 39.0482 173.589 39.0482C174.519 39.0482 175.385 39.2356 176.195 39.6102C177.003 39.9848 177.707 40.4855 178.308 41.1088L178.314 41.1185C178.863 41.6901 179.622 42.0163 180.413 42.0163H185.167C185.749 42.0163 186.152 41.4221 185.923 40.8892C185.923 40.8859 185.92 40.8827 185.917 40.8795C185.213 39.2582 184.253 37.8371 183.042 36.6195C181.831 35.4019 180.413 34.4427 178.798 33.7418C177.18 33.041 175.443 32.689 173.589 32.689C171.735 32.689 169.994 33.041 168.379 33.7418C166.761 34.4427 165.347 35.4019 164.136 36.6195C162.924 37.8371 161.965 39.2549 161.261 40.8795C160.557 42.5008 160.205 44.2351 160.205 46.0728C160.205 47.9105 160.557 49.6449 161.261 51.2662C161.965 52.8875 162.924 54.3085 164.136 55.5261C165.347 56.7437 166.765 57.703 168.379 58.4038C169.998 59.1046 171.732 59.4567 173.589 59.4567C175.446 59.4567 177.184 59.1046 178.798 58.4038C180.417 57.703 181.831 56.7437 183.042 55.5261C184.253 54.3085 185.213 52.8907 185.917 51.2662C185.917 51.2662 185.917 51.2597 185.92 51.2565C186.094 50.856 185.788 50.4103 185.352 50.4103H179.745H179.751Z" fill="#5953F6"/>
<path d="M213.582 42.2427C212.965 40.6763 212.099 39.3069 210.985 38.1313C209.871 36.9557 208.537 36.032 206.987 35.3538C205.436 34.6756 203.728 34.3364 201.858 34.3364C199.988 34.3364 198.282 34.6756 196.729 35.3538C196.639 35.3926 196.551 35.4378 196.464 35.4765V25.458H189.381V45.03C189.268 45.7534 189.207 46.493 189.207 47.252V55.7655C189.207 57.8002 190.854 59.4473 192.889 59.4473H196.461V44.342C196.713 43.6283 197.052 42.9985 197.494 42.4624C197.992 41.8616 198.609 41.3772 199.345 41.0155C200.081 40.6537 200.918 40.4729 201.851 40.4729C202.785 40.4729 203.621 40.6537 204.358 41.0155C205.094 41.3772 205.714 41.8584 206.208 42.4624C206.706 43.0663 207.08 43.7801 207.339 44.6069C207.594 45.4369 207.723 46.3154 207.723 47.2488V59.4473H214.499V47.2488C214.499 45.4724 214.189 43.7995 213.572 42.2331L213.582 42.2427Z" fill="#5953F6"/>
</g>
<defs>
<clipPath id="clip0_10617_77510">
<rect width="214.499" height="60" fill="white"/>
</clipPath>
<clipPath id="clip1_10617_77510">
<rect width="60" height="60" rx="13.9535" fill="white"/>
</clipPath>
<clipPath id="clip2_10617_77510">
<rect width="89.3023" height="46.0465" fill="white" transform="translate(-13.9531 6.97656)"/>
</clipPath>
</defs>
</svg>
